PathFileType	4	(X/Y/Z)	/Users/niels/Desktop/University/Third Semester/Perception and Action/Exam/Gymnastics Motion Tracking/Code for Gym Tracking/Analyzed Data/Webcam_Backflip/id7_1_trajectory_Sports2D/id7_1_trajectory_Sports2D_px_person00.trc
DataRate	CameraRate	NumFrames	NumMarkers	Units	OrigDataRate	OrigDataStartFrame	OrigNumFrames
29.81132075471698	29.81132075471698	11	22	m	29.81132075471698	79	159
Frame#	Time	Hip			RHip			RKnee			RAnkle			RBigToe			RSmallToe			RHeel			LHip			LKnee			LAnkle			LBigToe			LSmallToe			LHeel			Neck			Head			Nose			RShoulder			RElbow			RWrist			LShoulder			LElbow			LWrist		
		X1	Y1	Z1	X2	Y2	Z2	X3	Y3	Z3	X4	Y4	Z4	X5	Y5	Z5	X6	Y6	Z6	X7	Y7	Z7	X8	Y8	Z8	X9	Y9	Z9	X10	Y10	Z10	X11	Y11	Z11	X12	Y12	Z12	X13	Y13	Z13	X14	Y14	Z14	X15	Y15	Z15	X16	Y16	Z16	X17	Y17	Z17	X18	Y18	Z18	X19	Y19	Z19	X20	Y20	Z20	X21	Y21	Z21	X22	Y22	Z22
79	2.65	0.7392748551653541	-0.6018680557723081	0.0	0.724855718680439	-0.605189973044705	0.0	0.7259957660803172	-0.7126270522341352	0.0	0.7154052601633009	-0.8175783564145964	0.0	0.7458493402292181	-0.8305052856464382	0.0	0.7291249071979833	-0.8308604563468867	0.0	0.7088096274119577	-0.8275719036310998	0.0	0.7549302974097876	-0.6019982791722919	0.0	0.7538982650005555	-0.7115836490408737	0.0	0.7541497836127482	-0.8110726589562074	0.0	0.7816516047618014	-0.8269364433994205	0.0	0.7821739398011446	-0.8228937171185007	0.0	0.7470425363206559	-0.821947201646764	0.0	0.739707535497989	-0.4496330905587502	0.0	0.7419364678523542	-0.3819698065800867	0.0	0.7511551261848415	-0.417356564336924	0.0	0.7176038555109379	-0.4770907009518851	0.0	0.6976623985863991	-0.5484208629691545	0.0	0.6885883845305303	-0.615302753931601	0.0	0.7576336334300486	-0.4687436427604421	0.0	0.7471971927030631	-0.5353081743494331	0.0	0.7265559985824072	-0.6014952264132044	0.0
80	2.6835443037974684	0.7410203142143078	-0.6143979100119658	0.0	0.7260719597751009	-0.6179151470555831	0.0	0.7263584262629649	-0.7248146147391128	0.0	0.7141914783686192	-0.829769265541633	0.0	0.7447365537734932	-0.8421497706913671	0.0	0.7283107819060602	-0.8424842133372817	0.0	0.7072379847758454	-0.838509971597979	0.0	0.7568521660989359	-0.6151090157166471	0.0	0.7549802398309683	-0.7239956122119048	0.0	0.7531757298122053	-0.8238600334080223	0.0	0.7807145202465202	-0.8388369942731699	0.0	0.7804355594153525	-0.8345173844212107	0.0	0.7464065509936998	-0.8335660563245127	0.0	0.7413066846138383	-0.4624465417488869	0.0	0.7420836779591632	-0.39525534690134523	0.0	0.751632219790393	-0.43023966371978595	0.0	0.71787594718196	-0.49031662552869365	0.0	0.6990272060484668	-0.5618635101776073	0.0	0.6914215751732887	-0.629176828402341	0.0	0.7605230958403641	-0.4812583737817613	0.0	0.7535479362968006	-0.5491241202945536	0.0	0.7429669828742247	-0.6143008108929009	0.0
81	2.7170886075949365	0.7424616295561738	-0.6222430589530628	0.0	0.7267811946055575	-0.6258736235048992	0.0	0.7263389159051791	-0.7323189994168093	0.0	0.7134515260168494	-0.8372359272282539	0.0	0.7437361871515782	-0.8495380809202397	0.0	0.7275842823253718	-0.8500398254751371	0.0	0.7062301950298446	-0.845234633186452	0.0	0.7585519409404086	-0.6233731666728598	0.0	0.7559283934033065	-0.7314831026068707	0.0	0.7524543182715472	-0.8317870989030862	0.0	0.7804271136723949	-0.8463674398249553	0.0	0.7796347395650414	-0.8416389214856183	0.0	0.7460484366845633	-0.8407380928258098	0.0	0.7427114113345905	-0.4705128623797589	0.0	0.7425528294041333	-0.40385747769897695	0.0	0.7520424143790769	-0.4385591719639022	0.0	0.7176183341960722	-0.49846836121388044	0.0	0.6998057295042509	-0.5703915321649735	0.0	0.6939711515936328	-0.6381982843872976	0.0	0.7636765278941188	-0.4891880336691185	0.0	0.7610891688229883	-0.5581776351748425	0.0	0.7621667831425347	-0.6215028555885316	0.0
82	2.750632911392405	0.7435674026379546	-0.6246221957838618	0.0	0.7271372328082484	-0.628275943254346	0.0	0.7261179281077254	-0.7343016259393359	0.0	0.713246512185437	-0.8390034267848273	0.0	0.742892322654839	-0.8516504547635362	0.0	0.7269570562194757	-0.8525031693075108	0.0	0.7058520051002538	-0.8469557843329841	0.0	0.7599723129517945	-0.625948216346958	0.0	0.7566497357887885	-0.7333256870154403	0.0	0.7520885046282401	-0.8338674253618171	0.0	0.7809273887951844	-0.8484587072328601	0.0	0.7799991083976276	-0.8433142989200005	0.0	0.7460166942033288	-0.8426978145464434	0.0	0.7437971118197959	-0.4729061262257964	0.0	0.7432243185762806	-0.4066937463293775	0.0	0.7522394300698756	-0.4413286855361009	0.0	0.716912397431975	-0.5006954027576084	0.0	0.700062097674974	-0.573112288435807	0.0	0.6962423123617795	-0.6412974218985051	0.0	0.7667610311447333	-0.4915371858268611	0.0	0.7688133834364349	-0.5612584788209461	0.0	0.7809498061232177	-0.6224488989840243	0.0
83	2.784177215189873	0.7444156180475301	-0.6214379313615244	0.0	0.7273480429676282	-0.6250118114819736	0.0	0.7259254571872843	-0.7305886335858074	0.0	0.7135655513155004	-0.8348619100203747	0.0	0.7423357290321569	-0.8481654357410525	0.0	0.7265738903116745	-0.8495159865108842	0.0	0.7061033609506491	-0.8434310053619881	0.0	0.7612031885768625	-0.6227394096512885	0.0	0.7572489634387727	-0.7294563334310424	0.0	0.752137606425243	-0.8299303004482768	0.0	0.7820782833414976	-0.8448849487332497	0.0	0.7813671423872487	-0.8394822499507116	0.0	0.7463295806591931	-0.8393061977204022	0.0	0.7445274377920107	-0.46942289054668235	0.0	0.7438854473411424	-0.40344250384608876	0.0	0.7521033403653801	-0.43826463476901434	0.0	0.7158664779860326	-0.496855974380916	0.0	0.6999759332512111	-0.5698517616051207	0.0	0.6982850561588096	-0.6381320695547047	0.0	0.7695352793020278	-0.4880480047207087	0.0	0.7757658041989736	-0.5582032613119	0.0	0.7971518382324398	-0.6175410432281057	0.0
84	2.8177215189873417	0.7451649446544242	-0.6132056377485938	0.0	0.727599731523603	-0.6165475927553679	0.0	0.7260616350951624	-0.7216660040367922	0.0	0.7144122626571263	-0.8253944850170181	0.0	0.7422757914695651	-0.8395467102309242	0.0	0.7267170981806886	-0.8414316782952894	0.0	0.7070091841104934	-0.834985748293711	0.0	0.7624449963341718	-0.614254342946717	0.0	0.7579804045746273	-0.7204142087965243	0.0	0.7525935083567008	-0.8206088089935043	0.0	0.7835178156516094	-0.836192843028667	0.0	0.7833201045151834	-0.8308160183142449	0.0	0.7469598570258227	-0.8309726183397159	0.0	0.744951259204248	-0.4605995112495338	0.0	0.7443441241494504	-0.3945961346134513	0.0	0.7515510294625996	-0.4298379077673811	0.0	0.714591685897353	-0.4875097626215659	0.0	0.69975933375484	-0.5611338627234421	0.0	0.7000972928813843	-0.6291710826689889	0.0	0.7719154220935738	-0.4792106793937742	0.0	0.7814560737964288	-0.5497282494975381	0.0	0.8098244842995557	-0.6077807653538568	0.0
85	2.85126582278481	0.745956930372803	-0.6009061492600634	0.0	0.7279748307843843	-0.603844981305381	0.0	0.7268440679908961	-0.7086609410036823	0.0	0.7157198608372048	-0.8118975302133327	0.0	0.7427984561884899	-0.827058987355959	0.0	0.7275573557994163	-0.8293580933164943	0.0	0.7084911358926135	-0.8225626782460369	0.0	0.7638574728509773	-0.6014656845994749	0.0	0.7591447391581906	-0.7072958429566326	0.0	0.7534379847691012	-0.8072058307965575	0.0	0.7848530672422563	-0.823658344587049	0.0	0.7854405441946414	-0.8185853976214573	0.0	0.7478882065357662	-0.8186621364830182	0.0	0.7451374419311787	-0.4475632145576356	0.0	0.7445123507555753	-0.38130994671012464	0.0	0.750591968920754	-0.417151435632686	0.0	0.7131742215310993	-0.4738202237903227	0.0	0.6995366891433362	-0.5480610273071785	0.0	0.7015665152543004	-0.6156029414588207	0.0	0.773941425549178	-0.4661769858545257	0.0	0.7858221844853445	-0.5370607209935252	0.0	0.8188614395037768	-0.5943817934339222	0.0
86	2.8848101265822783	0.746853596504815	-0.5858023418260897	0.0	0.728449388955188	-0.5882451079323999	0.0	0.7284704106396879	-0.6931284420944955	0.0	0.7173061837382276	-0.7960894367062646	0.0	0.7437560183815719	-0.8124994841298616	0.0	0.7289661915050559	-0.8149700088183586	0.0	0.710284427225415	-0.8076192819458267	0.0	0.7654847065631778	-0.5857155605481423	0.0	0.7609912932238183	-0.6915722010975047	0.0	0.7547071771146981	-0.7913970692074647	0.0	0.785821307185435	-0.809017504238503	0.0	0.7874546666221512	-0.8043973978863463	0.0	0.7491411218739469	-0.8038037373873391	0.0	0.7451351656705946	-0.431815936861478	0.0	0.7443999894406149	-0.36515504452420317	0.0	0.7493792507730163	-0.401681115521326	0.0	0.7116733549919083	-0.457375264124481	0.0	0.6992724742504427	-0.5321112875568655	0.0	0.7024812767731857	-0.5990387833105562	0.0	0.7757217613479707	-0.450519909061891	0.0	0.7890492681870145	-0.521698297236001	0.0	0.8246805397643564	-0.5786544755663361	0.0
87	2.918354430379747	0.7478554966906652	-0.5693267601778408	0.0	0.72896702622163	-0.5713157933934254	0.0	0.730895775791539	-0.676715882688548	0.0	0.7190486837882911	-0.7797303416226214	0.0	0.745004243836799	-0.7977352363876857	0.0	0.7307271882539523	-0.8001210925635739	0.0	0.7121388156492685	-0.7918701370365003	0.0	0.7672950535149167	-0.5686007228202975	0.0	0.7636075408061319	-0.6748371735222926	0.0	0.756501789497478	-0.7748549084575294	0.0	0.7863458388937143	-0.7940237609538865	0.0	0.789243196289364	-0.7898399210132496	0.0	0.7508071408085807	-0.7879855275778521	0.0	0.7450074370932154	-0.4150105474039344	0.0	0.7440613605642735	-0.3478458972808873	0.0	0.7481556422504327	-0.38498816239923184	0.0	0.7101560553376782	-0.4399478004270758	0.0	0.6988330481783694	-0.5149204838102257	0.0	0.7026208309610211	-0.5812203599951377	0.0	0.777391249831441	-0.43390723034448303	0.0	0.7914421226985826	-0.505225865888584	0.0	0.8280255826602587	-0.5619611527223196	0.0
88	2.951898734177215	0.7489514443327456	-0.5530217441398421	0.0	0.7294898061966276	-0.5546935064521283	0.0	0.7338169875180135	-0.6609582334133786	0.0	0.7210255558695063	-0.764392540722151	0.0	0.7466172656332836	-0.7843479936650556	0.0	0.7327961026432527	-0.7864879000876759	0.0	0.7140727573724948	-0.7770073249002774	0.0	0.7692319420959898	-0.5517976849755557	0.0	0.76685486629848	-0.6586362552407613	0.0	0.7589545137682754	-0.7589738626765354	0.0	0.7865381674570826	-0.7801444765947942	0.0	0.790839446499186	-0.776231251648605	0.0	0.7530443630768922	-0.7726217093020086	0.0	0.7448572475750862	-0.39871788510591083	0.0	0.7435763388812979	-0.3310013055992941	0.0	0.7471105897927166	-0.3685282149162534	0.0	0.7087051462327988	-0.42322324658857896	0.0	0.6981239718744678	-0.4980869440111869	0.0	0.7018128867944392	-0.5638425820810581	0.0	0.7790711990196579	-0.41785346028152465	0.0	0.7933424406722952	-0.4891311606994862	0.0	0.8297693613109772	-0.5456329641094522	0.0
89	2.9854430379746835	0.7501385977369921	-0.5383753232906857	0.0	0.7299917280869049	-0.5398816070908806	0.0	0.7367790264587193	-0.6471857870974307	0.0	0.7234488229515319	-0.7513702184527008	0.0	0.74875199179374	-0.773484856786814	0.0	0.7352200808845936	-0.7753489551094818	0.0	0.7163900376953395	-0.7644499321586513	0.0	0.7712310109097631	-0.5368320157914249	0.0	0.7704664231030975	-0.6443130123880967	0.0	0.7622132006682902	-0.7447385849262822	0.0	0.786665028211453	-0.7683541042340061	0.0	0.7924257679410138	-0.7644507699202614	0.0	0.7560655017616332	-0.7587312180244551	0.0	0.7447913670789973	-0.38423474762421705	0.0	0.7430471445238037	-0.31600198803350305	0.0	0.7463054773373368	-0.35356138796481174	0.0	0.707402039243621	-0.40856273980040153	0.0	0.6971539865912526	-0.4829909409094498	0.0	0.6999215453154779	-0.5483809737095341	0.0	0.780824472272457	-0.40358130679752496	0.0	0.7950732963137095	-0.4746743834305989	0.0	0.8307249462158753	-0.5308747262920634	0.0
